<?xml version="1.0" standalone="no"?>
<!DOCTYPE svg PUBLIC "-//W3C//DTD SVG 20010904//EN"
 "http://www.w3.org/TR/2001/REC-SVG-20010904/DTD/svg10.dtd">
<svg version="1.0" xmlns="http://www.w3.org/2000/svg"
 width="263.000000pt" height="191.000000pt" viewBox="0 0 263.000000 191.000000"
 preserveAspectRatio="xMidYMid meet">

<g transform="translate(0.000000,191.000000) scale(0.100000,-0.100000)"
fill="#000000" stroke="none">
<path d="M701 1707 c2 -1 13 -9 24 -17 19 -14 19 -14 6 3 -7 9 -18 17 -24 17
-6 0 -8 -1 -6 -3z"/>
<path d="M693 1629 c13 -7 17 -25 19 -67 l2 -57 3 53 c4 53 -7 82 -31 82 -6 0
-3 -5 7 -11z"/>
<path d="M654 1617 c-3 -8 -4 -49 -2 -93 l3 -79 5 93 c5 92 4 104 -6 79z"/>
<path d="M1270 1599 c0 -5 -4 -7 -10 -4 -5 3 -10 -2 -10 -12 0 -15 -2 -15 -9
-4 -7 11 -12 4 -20 -27 -22 -79 -31 -254 -31 -554 0 -306 -1 -370 -10 -362 -7
8 -29 -79 -23 -90 3 -6 3 -8 -2 -4 -5 5 -55 -74 -55 -89 0 -1 12 2 26 7 35 14
56 37 58 64 0 13 4 22 7 20 7 -4 35 127 44 209 4 32 1 161 -5 288 -18 345 5
549 62 549 19 0 20 2 8 10 -20 13 -30 12 -30 -1z m-63 -321 c-3 -8 -6 -5 -6 6
-1 11 2 17 5 13 3 -3 4 -12 1 -19z m-13 -703 c-4 -8 -8 -15 -10 -15 -2 0 -4 7
-4 15 0 8 4 15 10 15 5 0 7 -7 4 -15z m-63 -98 c-10 -9 -11 -8 -5 6 3 10 9 15
12 12 3 -3 0 -11 -7 -18z"/>
<path d="M2323 1490 c0 -36 2 -50 4 -32 2 17 2 47 0 65 -2 17 -4 3 -4 -33z"/>
<path d="M660 1426 c0 -2 8 -10 18 -17 15 -13 16 -12 3 4 -13 16 -21 21 -21
13z"/>
<path d="M729 1413 c-13 -16 -12 -17 4 -4 9 7 17 15 17 17 0 8 -8 3 -21 -13z"/>
<path d="M2323 1325 c0 -22 2 -30 4 -17 2 12 2 30 0 40 -3 9 -5 -1 -4 -23z"/>
<path d="M2293 1110 c0 -47 2 -66 4 -42 2 23 2 61 0 85 -2 23 -4 4 -4 -43z"/>
<path d="M333 910 c0 -25 2 -35 4 -22 2 12 2 32 0 45 -2 12 -4 2 -4 -23z"/>
</g>
</svg>
